<svg width="94" height="65" viewBox="0 0 94 65" fill="none" xmlns="http://www.w3.org/2000/svg">
<path d="M6.076 62H0.49V52.116H1.61V61.888H3.976C4.58267 61.888 5.07267 61.7387 5.446 61.44C5.82867 61.1413 6.15067 60.6373 6.412 59.928L6.076 62ZM7.3943 52.116H8.4443V62H7.3943V52.116ZM12.7497 52.214C12.3764 52.214 12.0357 52.228 11.7277 52.256C11.4197 52.2747 11.1304 52.3167 10.8597 52.382C10.5984 52.4473 10.3511 52.5453 10.1177 52.676C9.8844 52.7973 9.65107 52.97 9.41773 53.194V52.102H17.1597V53.194C16.9171 52.97 16.6791 52.7973 16.4457 52.676C16.2124 52.5453 15.9604 52.4473 15.6897 52.382C15.4284 52.3167 15.1437 52.2747 14.8357 52.256C14.5371 52.228 14.2011 52.214 13.8277 52.214V62H12.7497V52.214ZM21.4724 52.214C21.0991 52.214 20.7584 52.228 20.4504 52.256C20.1424 52.2747 19.8531 52.3167 19.5824 52.382C19.3211 52.4473 19.0737 52.5453 18.8404 52.676C18.6071 52.7973 18.3737 52.97 18.1404 53.194V52.102H25.8824V53.194C25.6397 52.97 25.4017 52.7973 25.1684 52.676C24.9351 52.5453 24.6831 52.4473 24.4124 52.382C24.1511 52.3167 23.8664 52.2747 23.5584 52.256C23.2597 52.228 22.9237 52.214 22.5504 52.214V62H21.4724V52.214ZM32.449 62H26.863V52.116H27.983V61.888H30.349C30.9557 61.888 31.4457 61.7387 31.819 61.44C32.2017 61.1413 32.5237 60.6373 32.785 59.928L32.449 62ZM34.8453 61.888H37.2113C37.8273 61.888 38.3267 61.7387 38.7093 61.44C39.092 61.1413 39.4093 60.6373 39.6613 59.928L39.3393 62H33.7673V52.116H39.4233V53.236C39.1713 53.0027 38.9287 52.816 38.6953 52.676C38.4713 52.536 38.2287 52.4333 37.9673 52.368C37.7153 52.3027 37.4307 52.2607 37.1133 52.242C36.796 52.2233 36.4227 52.214 35.9933 52.214H34.8453V54.482C34.8453 54.958 34.906 55.35 35.0273 55.658C35.1487 55.9567 35.3307 56.19 35.5733 56.358C35.816 56.526 36.1193 56.6427 36.4833 56.708C36.8473 56.764 37.2673 56.792 37.7433 56.792V57.898C37.538 57.6647 37.2907 57.4827 37.0013 57.352C36.712 57.2213 36.4227 57.0813 36.1333 56.932C35.8533 56.7733 35.592 56.582 35.3493 56.358C35.116 56.134 34.948 55.8167 34.8453 55.406V61.888ZM45.6325 62H44.5545V52.116H50.2105V53.236C49.9678 53.0027 49.7298 52.816 49.4965 52.676C49.2725 52.536 49.0298 52.4333 48.7685 52.368C48.5071 52.3027 48.2131 52.2607 47.8865 52.242C47.5691 52.2233 47.1958 52.214 46.7665 52.214H45.6325V54.482C45.6325 54.958 45.6931 55.35 45.8145 55.658C45.9358 55.9567 46.1178 56.19 46.3605 56.358C46.6125 56.526 46.9205 56.6427 47.2845 56.708C47.6485 56.764 48.0731 56.792 48.5585 56.792V57.898C48.3438 57.6647 48.0918 57.4827 47.8025 57.352C47.5131 57.2213 47.2238 57.0813 46.9345 56.932C46.6451 56.7733 46.3791 56.582 46.1365 56.358C45.9031 56.134 45.7351 55.8167 45.6325 55.406V62ZM54.4522 58.206C53.8549 58.262 53.3649 58.388 52.9822 58.584C52.5996 58.7707 52.2822 58.9947 52.0302 59.256C51.7876 59.508 51.5962 59.7833 51.4562 60.082C51.3162 60.3713 51.1902 60.642 51.0782 60.894C51.0129 61.0713 50.9429 61.2347 50.8682 61.384C50.8029 61.5333 50.7282 61.6593 50.6442 61.762C50.5602 61.8647 50.4622 61.944 50.3502 62C50.2382 62.0653 50.1029 62.0933 49.9442 62.084C49.8976 62.0747 49.8602 62.0653 49.8322 62.056C49.8042 62.056 49.7669 62.0327 49.7202 61.986C49.3376 61.818 49.1836 61.412 49.2582 60.768C49.2956 60.46 49.3609 60.1147 49.4542 59.732C49.5569 59.34 49.6922 58.92 49.8602 58.472C50.0469 57.968 50.2616 57.4407 50.5042 56.89C50.7469 56.33 51.0036 55.7747 51.2742 55.224C51.5449 54.664 51.8202 54.118 52.1002 53.586C52.3802 53.054 52.6556 52.564 52.9262 52.116H53.0242L57.2102 62H56.0342L54.4522 58.206ZM52.3522 53.32C52.1376 53.7307 51.9182 54.1553 51.6942 54.594C51.4796 55.0327 51.2649 55.476 51.0502 55.924C50.8449 56.3627 50.6489 56.8013 50.4622 57.24C50.2756 57.6787 50.1076 58.0987 49.9582 58.5C49.7902 58.948 49.6549 59.3633 49.5522 59.746C49.4589 60.1287 49.3936 60.4693 49.3562 60.768C49.3376 61.0573 49.3562 61.3047 49.4122 61.51C49.4776 61.706 49.5942 61.832 49.7622 61.888C49.8089 61.9067 49.8416 61.9207 49.8602 61.93C49.8882 61.93 49.9209 61.9393 49.9582 61.958C50.2382 61.9767 50.4482 61.8833 50.5882 61.678C50.7282 61.4633 50.8542 61.1927 50.9662 60.866C51.0782 60.6047 51.2089 60.3247 51.3582 60.026C51.5076 59.7273 51.7036 59.4473 51.9462 59.186C52.1982 58.9153 52.5202 58.682 52.9122 58.486C53.3042 58.29 53.8036 58.164 54.4102 58.108L52.3522 53.32ZM58.202 54.496C58.202 53.9733 58.328 53.5393 58.58 53.194C58.8414 52.8487 59.1727 52.5827 59.574 52.396C59.9754 52.2 60.4187 52.0833 60.904 52.046C61.3987 51.9993 61.8794 52.0227 62.346 52.116C62.8127 52.2093 63.242 52.3633 63.634 52.578C64.026 52.7927 64.32 53.0633 64.516 53.39V54.86C64.1614 54.1413 63.746 53.5813 63.27 53.18C62.8034 52.7787 62.3274 52.5033 61.842 52.354C61.3567 52.2047 60.8854 52.1673 60.428 52.242C59.9707 52.3073 59.5834 52.452 59.266 52.676C58.9954 52.8533 58.8087 53.082 58.706 53.362C58.6034 53.6327 58.6314 53.936 58.79 54.272C58.9487 54.608 59.2567 54.9673 59.714 55.35C60.1807 55.7327 60.8434 56.1247 61.702 56.526C62.0847 56.694 62.4534 56.8713 62.808 57.058C63.172 57.2447 63.4894 57.464 63.76 57.716C64.04 57.9587 64.264 58.2387 64.432 58.556C64.6 58.864 64.684 59.2233 64.684 59.634C64.684 60.0167 64.6094 60.3527 64.46 60.642C64.32 60.9313 64.124 61.1787 63.872 61.384C63.4707 61.692 62.9854 61.888 62.416 61.972C61.856 62.056 61.2727 62.0373 60.666 61.916C60.0687 61.7947 59.4854 61.5753 58.916 61.258C58.356 60.9313 57.88 60.516 57.488 60.012V58.066C57.8334 58.934 58.2674 59.662 58.79 60.25C59.322 60.8287 59.882 61.258 60.47 61.538C61.058 61.8087 61.6414 61.9253 62.22 61.888C62.808 61.8507 63.3214 61.6453 63.76 61.272C63.9934 61.076 64.1427 60.8473 64.208 60.586C64.2734 60.3153 64.2174 60.0213 64.04 59.704C63.8627 59.3773 63.5407 59.032 63.074 58.668C62.6167 58.304 61.982 57.9353 61.17 57.562C60.7967 57.394 60.4327 57.2167 60.078 57.03C59.7234 56.834 59.406 56.6147 59.126 56.372C58.846 56.1293 58.622 55.8587 58.454 55.56C58.286 55.252 58.202 54.8973 58.202 54.496ZM66.7278 62H65.6638V52.116H66.7278V55.42C66.7278 55.896 66.8212 56.2367 67.0078 56.442C67.2038 56.6473 67.4465 56.778 67.7358 56.834C68.0345 56.89 68.3612 56.904 68.7158 56.876C69.0798 56.8387 69.4252 56.8247 69.7518 56.834C70.0878 56.834 70.3912 56.8853 70.6618 56.988C70.9325 57.0907 71.1285 57.3053 71.2498 57.632V52.116H72.3418V62H71.2498V58.388C71.2498 58.0333 71.1938 57.758 71.0818 57.562C70.9792 57.366 70.8345 57.2213 70.6478 57.128C70.4612 57.0347 70.2465 56.9787 70.0038 56.96C69.7705 56.9413 69.5232 56.9413 69.2618 56.96C69.0098 56.9693 68.7485 56.9787 68.4778 56.988C68.2165 56.9973 67.9692 56.9833 67.7358 56.946C67.5118 56.9087 67.3112 56.834 67.1338 56.722C66.9565 56.61 66.8212 56.4327 66.7278 56.19V62ZM73.3201 52.116H74.3701V62H73.3201V52.116ZM79.0395 52.256C79.6928 52.0693 80.3415 52.0273 80.9855 52.13C81.6388 52.2233 82.2362 52.4333 82.7775 52.76C83.3282 53.0773 83.8042 53.4973 84.2055 54.02C84.6162 54.5427 84.9055 55.1353 85.0735 55.798C85.2602 56.4513 85.3068 57.1047 85.2135 57.758C85.1202 58.402 84.9148 59.004 84.5975 59.564C84.2802 60.1147 83.8602 60.5953 83.3375 61.006C82.8242 61.4073 82.2362 61.6967 81.5735 61.874C80.9108 62.0607 80.2575 62.1073 79.6135 62.014C78.9695 61.9207 78.3722 61.7153 77.8215 61.398C77.2802 61.0807 76.8042 60.6607 76.3935 60.138C75.9828 59.6153 75.6888 59.018 75.5115 58.346C75.3342 57.6833 75.2922 57.0253 75.3855 56.372C75.4882 55.7187 75.6982 55.1167 76.0155 54.566C76.3422 54.0153 76.7622 53.5393 77.2755 53.138C77.7888 52.7273 78.3768 52.4333 79.0395 52.256ZM79.0535 52.368C78.4562 52.5267 77.9662 52.8113 77.5835 53.222C77.2102 53.6233 76.9302 54.0947 76.7435 54.636C76.5568 55.1773 76.4588 55.7513 76.4495 56.358C76.4402 56.9553 76.5055 57.52 76.6455 58.052C76.7855 58.584 77.0095 59.1067 77.3175 59.62C77.6255 60.1333 77.9942 60.5767 78.4235 60.95C78.8528 61.314 79.3335 61.5847 79.8655 61.762C80.3975 61.93 80.9575 61.9347 81.5455 61.776C82.1428 61.6267 82.6328 61.3467 83.0155 60.936C83.3982 60.516 83.6828 60.0353 83.8695 59.494C84.0655 58.9527 84.1682 58.3833 84.1775 57.786C84.1962 57.1793 84.1355 56.61 83.9955 56.078C83.8555 55.5367 83.6315 55.0093 83.3235 54.496C83.0155 53.9827 82.6422 53.5393 82.2035 53.166C81.7742 52.7927 81.2888 52.5267 80.7475 52.368C80.2155 52.2 79.6508 52.2 79.0535 52.368ZM87.3037 52.116C87.6863 52.116 88.0457 52.186 88.3817 52.326C88.727 52.4567 89.0443 52.648 89.3337 52.9C89.6323 53.1427 89.903 53.4367 90.1457 53.782C90.3977 54.118 90.6263 54.4867 90.8317 54.888C91.2517 55.6533 91.5783 56.498 91.8117 57.422C92.0543 58.3367 92.227 59.2467 92.3297 60.152V52.116H93.3797V62H92.3297C92.3297 61.44 92.297 60.8567 92.2317 60.25C92.1663 59.634 92.0683 59.018 91.9377 58.402C91.807 57.786 91.6437 57.184 91.4477 56.596C91.261 55.9987 91.037 55.448 90.7757 54.944C90.561 54.5427 90.3323 54.1787 90.0897 53.852C89.847 53.516 89.581 53.2267 89.2917 52.984C89.0023 52.7413 88.6897 52.5547 88.3537 52.424C88.027 52.284 87.677 52.214 87.3037 52.214V62H86.2537V52.116H87.3037Z" fill="#B6A092"/>
<path d="M50.172 44H27.03V3.052H31.67V43.536H41.472C43.9853 43.536 46.0153 42.9173 47.562 41.68C49.1473 40.4427 50.4813 38.3547 51.564 35.416L50.172 44Z" fill="#B6A092"/>
<path d="M54.496 44H50.03V3.052H73.462V7.692C72.4567 6.72533 71.4707 5.952 70.504 5.372C69.576 4.792 68.5707 4.36666 67.488 4.096C66.4053 3.82533 65.1873 3.65133 63.834 3.574C62.5193 3.49666 60.9727 3.458 59.194 3.458H54.496V12.854C54.496 14.826 54.7473 16.45 55.25 17.726C55.7527 18.9633 56.5067 19.93 57.512 20.626C58.556 21.322 59.832 21.8053 61.34 22.076C62.848 22.308 64.6073 22.424 66.618 22.424V27.006C65.7287 26.0393 64.6847 25.2853 63.486 24.744C62.2873 24.2027 61.0887 23.6227 59.89 23.004C58.6913 22.3467 57.5893 21.554 56.584 20.626C55.6173 19.698 54.9213 18.3833 54.496 16.682V44Z" fill="#B6A092"/>
</svg>
