<svg width="22" height="22" viewBox="0 0 22 22" fill="none" xmlns="http://www.w3.org/2000/svg">
<path d="M6.37988 10.4121L6.37988 5.58816C6.37988 3.05438 8.43392 1.00035 10.9677 1.00035V1.00035C13.5015 1.00035 15.5555 3.05438 15.5555 5.58816L15.5555 10.4121" stroke="#EEEEEE" stroke-linecap="round"/>
<path d="M1.49283 10.5589C1.63456 8.81437 1.70543 7.9421 2.27984 7.41245C2.85426 6.88281 3.7294 6.88281 5.47969 6.88281H16.4545C18.2048 6.88281 19.08 6.88281 19.6544 7.41245C20.2288 7.9421 20.2997 8.81437 20.4414 10.5589L21.114 18.8385C21.1963 19.8503 21.2374 20.3562 20.9403 20.6783C20.6433 21.0005 20.1357 21.0005 19.1206 21.0005H2.81361C1.79847 21.0005 1.29091 21.0005 0.99389 20.6783C0.696872 20.3562 0.737973 19.8503 0.820174 18.8385L1.49283 10.5589Z" stroke="#EEEEEE"/>
</svg>
