<svg width="22" height="22" viewBox="0 0 22 22" fill="none" xmlns="http://www.w3.org/2000/svg">
<path d="M6.55554 10.4121L6.55554 5.44479C6.55554 2.99019 8.54539 1.00035 11 1.00035V1.00035C13.4546 1.00035 15.4444 2.99019 15.4444 5.44479L15.4444 10.4121" stroke="#B6A092" stroke-linecap="round"/>
<path d="M1.821 10.569C1.95865 8.82 2.02747 7.94552 2.60229 7.41417C3.1771 6.88281 4.05429 6.88281 5.80867 6.88281H16.1913C17.9457 6.88281 18.8229 6.88281 19.3977 7.41417C19.9725 7.94552 20.0414 8.82 20.179 10.569L20.8302 18.8435C20.9097 19.8532 20.9494 20.3581 20.6525 20.6793C20.3556 21.0005 19.8492 21.0005 18.8364 21.0005H3.16359C2.15079 21.0005 1.64439 21.0005 1.34747 20.6793C1.05056 20.3581 1.09029 19.8532 1.16976 18.8435L1.821 10.569Z" stroke="#B6A092"/>
</svg>
